<svg width="130.2" height="36.201" viewBox="0 0 130.2 36.201" xmlns="http://www.w3.org/2000/svg"><g id="svgGroup" stroke-linecap="round" fill-rule="evenodd" font-size="9pt" stroke="#000000" stroke-width="0.30mm" fill="#000000" style="stroke:#000000;stroke-width:0.30mm;fill:#000000"><path d="M 29.5 9.5 L 28.4 9.5 A 11.617 11.617 0 0 0 26.448 5.374 A 11.015 11.015 0 0 0 24.425 3.325 A 10.014 10.014 0 0 0 21.13 1.661 Q 19.701 1.228 17.982 1.078 A 21.794 21.794 0 0 0 16.1 1 A 16.272 16.272 0 0 0 11.587 1.606 A 13.895 13.895 0 0 0 8.3 3.025 A 13.517 13.517 0 0 0 3.386 8.145 A 16.486 16.486 0 0 0 3 8.875 A 17.432 17.432 0 0 0 1.521 13.366 Q 1.14 15.353 1.104 17.627 A 30.108 30.108 0 0 0 1.1 18.1 Q 1.1 23.16 2.8 26.856 A 15.486 15.486 0 0 0 3 27.275 Q 4.9 31.1 8.3 33.15 A 14.332 14.332 0 0 0 14.485 35.128 A 17.766 17.766 0 0 0 16.1 35.2 A 18.382 18.382 0 0 0 19.45 34.914 Q 21.339 34.563 22.839 33.784 A 9.634 9.634 0 0 0 24.4 32.775 Q 27.45 30.35 28.4 26.55 L 29.5 26.55 Q 28.35 31.15 25 33.675 A 11.816 11.816 0 0 1 20.891 35.627 Q 18.745 36.2 16.1 36.2 A 17.474 17.474 0 0 1 11.434 35.6 A 14.501 14.501 0 0 1 7.6 33.925 Q 3.95 31.65 1.975 27.575 A 19.374 19.374 0 0 1 0.302 22.117 A 25.726 25.726 0 0 1 0 18.1 Q 0 12.65 1.975 8.6 Q 3.95 4.55 7.6 2.275 A 15.026 15.026 0 0 1 13.893 0.125 A 19.036 19.036 0 0 1 16.1 0 A 20.032 20.032 0 0 1 19.768 0.316 Q 22.841 0.889 25 2.5 A 11.782 11.782 0 0 1 29.064 8.078 A 15.302 15.302 0 0 1 29.5 9.5 Z M 83.75 26.05 L 83.75 10.4 L 84.75 10.4 L 84.75 25.8 A 17.862 17.862 0 0 0 84.916 28.325 Q 85.102 29.622 85.496 30.665 A 6.854 6.854 0 0 0 86.85 32.925 A 6.72 6.72 0 0 0 90.032 34.825 Q 91.107 35.13 92.395 35.187 A 13.651 13.651 0 0 0 93 35.2 A 9.166 9.166 0 0 0 95.712 34.812 A 7.948 7.948 0 0 0 97.675 33.9 A 8.217 8.217 0 0 0 100.29 31.167 A 10.364 10.364 0 0 0 100.825 30.15 Q 101.95 27.7 101.95 24.1 L 101.95 10.4 L 102.95 10.4 L 102.95 35.6 L 102.15 35.6 L 101.85 29.9 A 12.866 12.866 0 0 1 100.744 32.092 Q 99.949 33.335 98.931 34.165 A 7.247 7.247 0 0 1 98.1 34.75 Q 95.7 36.2 92.9 36.2 A 11.005 11.005 0 0 1 89.818 35.78 A 9.789 9.789 0 0 1 88.25 35.175 A 7.285 7.285 0 0 1 85.193 32.348 A 9.059 9.059 0 0 1 84.95 31.925 A 8.913 8.913 0 0 1 84.173 29.882 Q 83.75 28.218 83.75 26.05 Z M 78.45 17.2 L 77.35 17.2 Q 76.7 14.25 74.275 12.525 A 9.195 9.195 0 0 0 70.433 10.969 A 12.391 12.391 0 0 0 68.35 10.8 Q 65.7 10.8 63.3 12.15 A 9.872 9.872 0 0 0 60.138 15.009 A 12.446 12.446 0 0 0 59.375 16.2 Q 58.066 18.519 57.881 21.908 A 20.98 20.98 0 0 0 57.85 23.05 Q 57.85 26.35 58.775 28.625 A 11.93 11.93 0 0 0 59.85 30.694 A 9.403 9.403 0 0 0 61.225 32.35 Q 62.75 33.8 64.6 34.5 Q 66.45 35.2 68.35 35.2 A 11.75 11.75 0 0 0 71.001 34.911 A 10.058 10.058 0 0 0 72.475 34.45 Q 74.35 33.7 75.65 32.275 A 6.914 6.914 0 0 0 77.236 29.303 A 8.372 8.372 0 0 0 77.35 28.8 L 78.45 28.8 Q 77.85 31.95 75.25 34.075 Q 72.828 36.055 68.888 36.19 A 17.091 17.091 0 0 1 68.3 36.2 A 11.971 11.971 0 0 1 64.601 35.644 A 10.638 10.638 0 0 1 62.325 34.6 A 10.693 10.693 0 0 1 58.537 30.615 A 13.012 13.012 0 0 1 58.225 30.025 A 13.938 13.938 0 0 1 56.966 25.982 A 18.471 18.471 0 0 1 56.75 23.1 A 18.605 18.605 0 0 1 57.042 19.722 Q 57.416 17.693 58.273 16.028 A 11.74 11.74 0 0 1 58.3 15.975 A 12.092 12.092 0 0 1 60.503 12.944 A 10.721 10.721 0 0 1 62.475 11.4 Q 65.1 9.8 68.3 9.8 A 12.906 12.906 0 0 1 71.482 10.174 A 9.741 9.741 0 0 1 75.075 11.9 A 9.225 9.225 0 0 1 77.435 14.526 A 8.609 8.609 0 0 1 78.45 17.2 Z M 129.55 35.6 L 126.4 35.6 A 9.29 9.29 0 0 1 125.065 35.51 Q 124.153 35.377 123.425 35.05 A 3.573 3.573 0 0 1 121.774 33.534 A 4.694 4.694 0 0 1 121.575 33.15 Q 121.127 32.183 121 30.727 A 14.157 14.157 0 0 1 120.95 29.5 L 120.95 11.3 L 116.55 11.3 L 116.55 10.4 L 120.95 10.4 L 121.15 5.3 L 121.95 5.3 L 121.95 10.4 L 130.2 10.4 L 130.2 11.3 L 121.95 11.3 L 121.95 29.5 A 11.156 11.156 0 0 0 122.031 30.89 Q 122.244 32.585 123.025 33.475 A 3.188 3.188 0 0 0 124.292 34.334 Q 125.233 34.7 126.6 34.7 L 129.55 34.7 L 129.55 35.6 Z M 44.8 35.6 L 43.8 35.6 L 43.8 10.4 L 44.6 10.4 L 44.85 15.7 A 12.217 12.217 0 0 1 45.772 13.948 Q 46.393 12.979 47.151 12.27 A 7.597 7.597 0 0 1 47.225 12.2 Q 48.65 10.9 50.525 10.35 Q 52.4 9.8 54.8 9.8 L 54.8 10.7 L 54.35 10.7 A 11.504 11.504 0 0 0 52.928 10.794 Q 52.224 10.882 51.453 11.052 A 18.942 18.942 0 0 0 51.35 11.075 Q 49.7 11.45 48.2 12.525 A 6.707 6.707 0 0 0 46.687 14.051 Q 46.166 14.768 45.75 15.675 Q 44.8 17.75 44.8 21.15 L 44.8 35.6 Z M 36.6 35.6 L 35.6 35.6 L 35.6 10.4 L 36.6 10.4 L 36.6 35.6 Z M 111.15 35.6 L 110.15 35.6 L 110.15 10.4 L 111.15 10.4 L 111.15 35.6 Z M 35.643 2.859 A 0.823 0.823 0 0 0 36.1 3 A 0.902 0.902 0 0 0 36.453 2.932 A 0.919 0.919 0 0 0 36.775 2.7 A 1.229 1.229 0 0 0 36.896 2.547 A 0.887 0.887 0 0 0 37.05 2.05 A 1.154 1.154 0 0 0 37.05 2.038 A 0.916 0.916 0 0 0 36.775 1.375 Q 36.5 1.1 36.1 1.1 A 0.866 0.866 0 0 0 35.7 1.199 A 1.144 1.144 0 0 0 35.45 1.375 A 1.096 1.096 0 0 0 35.421 1.404 A 0.876 0.876 0 0 0 35.15 2.05 A 0.815 0.815 0 0 0 35.273 2.478 A 1.177 1.177 0 0 0 35.45 2.7 A 1.208 1.208 0 0 0 35.643 2.859 Z M 110.193 2.859 A 0.823 0.823 0 0 0 110.65 3 A 0.902 0.902 0 0 0 111.003 2.932 A 0.919 0.919 0 0 0 111.325 2.7 A 1.229 1.229 0 0 0 111.446 2.547 A 0.887 0.887 0 0 0 111.6 2.05 A 1.154 1.154 0 0 0 111.6 2.038 A 0.916 0.916 0 0 0 111.325 1.375 Q 111.05 1.1 110.65 1.1 A 0.866 0.866 0 0 0 110.25 1.199 A 1.144 1.144 0 0 0 110 1.375 A 1.096 1.096 0 0 0 109.971 1.404 A 0.876 0.876 0 0 0 109.7 2.05 A 0.815 0.815 0 0 0 109.823 2.478 A 1.177 1.177 0 0 0 110 2.7 A 1.208 1.208 0 0 0 110.193 2.859 Z" vector-effect="non-scaling-stroke"/></g></svg>
