<svg width="115" height="28" viewBox="0 0 115 28" fill="none" xmlns="http://www.w3.org/2000/svg">
<g clip-path="url(#clip0_638_416)">
<path fill-rule="evenodd" clip-rule="evenodd" d="M11.1722 1.28971H11.1703C8.7614 5.72839 5.02143 9.33295 0.48919 11.562C-0.23547 11.9184 -0.13792 12.9539 0.668511 12.9794C0.796566 12.9835 0.925127 12.9855 1.05416 12.9855C6.40693 12.9855 10.9426 9.47075 12.4996 4.61301C14.0565 9.47082 18.5922 12.9857 23.945 12.9857C24.0743 12.9857 24.2032 12.9836 24.3315 12.9795C25.138 12.9539 25.2355 11.9185 24.5108 11.5621C19.9783 9.33311 16.2381 5.72851 13.8291 1.28971C13.181 0.236764 11.8298 0.236761 11.1722 1.28971ZM13.8278 26.7103H13.8297C16.2386 22.2716 19.9786 18.6671 24.5108 16.438C25.2355 16.0816 25.1379 15.0461 24.3315 15.0206C24.2034 15.0165 24.0749 15.0145 23.9458 15.0145C18.5931 15.0145 14.0574 18.5292 12.5004 23.387C10.9435 18.5292 6.40781 15.0143 1.05499 15.0143C0.925661 15.0143 0.796805 15.0164 0.668458 15.0205C-0.137957 15.0461 -0.235453 16.0815 0.489207 16.4379C5.02169 18.6669 8.76189 22.2715 11.1709 26.7103C11.819 27.7632 13.1702 27.7632 13.8278 26.7103Z" fill="url(#paint0_linear_638_416)"/>
<path d="M44.1717 23.812C42.8024 23.812 41.537 23.5693 40.3757 23.084C39.2317 22.5813 38.2264 21.8793 37.3597 20.978C36.5104 20.0767 35.8517 19.0193 35.3837 17.806C34.9157 16.5927 34.6817 15.2667 34.6817 13.828C34.6817 12.372 34.9157 11.0373 35.3837 9.824C35.8517 8.61067 36.5104 7.55333 37.3597 6.652C38.209 5.75067 39.2144 5.05733 40.3757 4.572C41.537 4.06933 42.8024 3.818 44.1717 3.818C45.5064 3.818 46.7024 4.052 47.7597 4.52C48.8344 4.988 49.7357 5.59467 50.4637 6.34C51.209 7.08533 51.7377 7.88267 52.0497 8.732L49.7097 9.798C49.259 8.72333 48.557 7.85667 47.6037 7.198C46.6504 6.522 45.5064 6.184 44.1717 6.184C42.8197 6.184 41.615 6.50467 40.5577 7.146C39.5177 7.78733 38.703 8.68 38.1137 9.824C37.5244 10.968 37.2297 12.3027 37.2297 13.828C37.2297 15.336 37.5244 16.662 38.1137 17.806C38.703 18.95 39.5177 19.8427 40.5577 20.484C41.615 21.1253 42.8197 21.446 44.1717 21.446C45.5064 21.446 46.6504 21.1167 47.6037 20.458C48.557 19.782 49.259 18.9067 49.7097 17.832L52.0497 18.898C51.7377 19.7473 51.209 20.5447 50.4637 21.29C49.7357 22.0353 48.8344 22.642 47.7597 23.11C46.7024 23.578 45.5064 23.812 44.1717 23.812ZM61.6315 23.812C60.2795 23.812 59.0575 23.5 57.9655 22.876C56.8735 22.2347 56.0068 21.3593 55.3655 20.25C54.7242 19.1407 54.4035 17.884 54.4035 16.48C54.4035 15.076 54.7155 13.828 55.3395 12.736C55.9808 11.644 56.8475 10.7773 57.9395 10.136C59.0315 9.49467 60.2622 9.174 61.6315 9.174C62.9835 9.174 64.2055 9.49467 65.2975 10.136C66.3895 10.76 67.2475 11.618 67.8715 12.71C68.5128 13.802 68.8335 15.0587 68.8335 16.48C68.8335 17.9013 68.5042 19.1667 67.8455 20.276C67.1868 21.368 66.3115 22.2347 65.2195 22.876C64.1448 23.5 62.9488 23.812 61.6315 23.812ZM61.6315 21.472C62.4982 21.472 63.2782 21.2553 63.9715 20.822C64.6822 20.3887 65.2368 19.7907 65.6355 19.028C66.0515 18.2653 66.2595 17.416 66.2595 16.48C66.2595 15.5267 66.0515 14.686 65.6355 13.958C65.2368 13.2127 64.6822 12.6233 63.9715 12.19C63.2782 11.7393 62.4982 11.514 61.6315 11.514C60.7475 11.514 59.9502 11.7393 59.2395 12.19C58.5462 12.6233 57.9915 13.2127 57.5755 13.958C57.1595 14.686 56.9515 15.5267 56.9515 16.48C56.9515 17.416 57.1595 18.2653 57.5755 19.028C57.9915 19.7907 58.5462 20.3887 59.2395 20.822C59.9502 21.2553 60.7475 21.472 61.6315 21.472ZM71.9872 23.5V9.486H74.3532V12.06L74.0932 11.696C74.4226 10.8987 74.9252 10.3093 75.6012 9.928C76.2772 9.52933 77.1006 9.33 78.0712 9.33H78.9292V11.618H77.7072C76.7192 11.618 75.9219 11.93 75.3152 12.554C74.7086 13.1607 74.4052 14.0273 74.4052 15.154V23.5H71.9872ZM84.9771 23.5L79.4911 9.486H82.1951L86.5891 21.342H85.6531L90.0731 9.486H92.7771L87.2651 23.5H84.9771ZM94.9404 23.5V9.486H97.3584V23.5H94.9404ZM94.9404 7.25V4.13H97.3584V7.25H94.9404ZM107.61 23.812C106.241 23.812 105.019 23.4913 103.944 22.85C102.887 22.2087 102.055 21.3333 101.448 20.224C100.842 19.1147 100.538 17.8667 100.538 16.48C100.538 15.076 100.842 13.828 101.448 12.736C102.055 11.644 102.887 10.7773 103.944 10.136C105.019 9.49467 106.241 9.174 107.61 9.174C108.529 9.174 109.387 9.33867 110.184 9.668C110.982 9.99733 111.684 10.4393 112.29 10.994C112.897 11.5487 113.339 12.1987 113.616 12.944L111.458 13.984C111.129 13.256 110.626 12.6667 109.95 12.216C109.274 11.748 108.494 11.514 107.61 11.514C106.761 11.514 105.99 11.7307 105.296 12.164C104.62 12.5973 104.083 13.1867 103.684 13.932C103.286 14.6773 103.086 15.5353 103.086 16.506C103.086 17.442 103.286 18.2913 103.684 19.054C104.083 19.7993 104.62 20.3887 105.296 20.822C105.99 21.2553 106.761 21.472 107.61 21.472C108.494 21.472 109.274 21.2467 109.95 20.796C110.626 20.328 111.129 19.7127 111.458 18.95L113.616 20.042C113.339 20.77 112.897 21.42 112.29 21.992C111.684 22.5467 110.982 22.9887 110.184 23.318C109.387 23.6473 108.529 23.812 107.61 23.812Z" fill="#7D7098"/>
</g>
<defs>
<linearGradient id="paint0_linear_638_416" x1="12.5" y1="0.5" x2="12.5" y2="27.5" gradientUnits="userSpaceOnUse">
<stop stop-color="#774CCF"/>
<stop offset="1" stop-color="#543593"/>
</linearGradient>
<clipPath id="clip0_638_416">
<rect width="115" height="27" fill="white" transform="translate(0 0.5)"/>
</clipPath>
</defs>
</svg>
