<?xml version="1.0" encoding="UTF-8"?>
<svg id="Layer_1" data-name="Layer 1" xmlns="http://www.w3.org/2000/svg" viewBox="0 0 291.82 71.71">
  <defs>
    <style>
      .cls-1 {
        fill: #212121;
        stroke-width: 0px;
      }
    </style>
  </defs>
  <path class="cls-1" d="M137.08,37.52c-3.87,0-7.19,1.38-9.36,3.88v-3.37h-7.92v33.67h7.92v-18.16c0-5.06,3.22-8.73,7.65-8.73,3.93,0,6.57,3.05,6.57,7.59v19.3h7.92v-20.5c0-8.18-5.14-13.67-12.79-13.67Z"/>
  <polygon class="cls-1" points="283.73 38.03 277.86 59.42 271.41 38.03 264.26 38.03 257.75 59.45 251.81 38.03 243.79 38.03 254.21 71.7 261.22 71.7 267.78 50.08 274.39 71.7 281.4 71.7 291.82 38.03 283.73 38.03"/>
  <path class="cls-1" d="M192.36,41.39v-3.36h-7.92v33.67h7.92v-12.21c0-10.6,3.68-14.36,6.83-14.36h5.51v-7.1h-4.75c-3.43,0-5.93,1.1-7.59,3.36ZM192.36,41.47h0s-.45,0-.45,0h.45Z"/>
  <path class="cls-1" d="M98.1,37.48c-9.91,0-17.1,7.19-17.1,17.1s7.19,17.1,17.1,17.1,17.04-7.19,17.04-17.1-7.17-17.1-17.04-17.1ZM107.2,54.58c0,5.91-3.74,10.04-9.1,10.04s-9.17-4.03-9.17-10.04,3.68-10.04,9.17-10.04,9.1,4.13,9.1,10.04Z"/>
  <path class="cls-1" d="M224.35,37.41c-9.91,0-17.1,7.19-17.1,17.1s7.19,17.1,17.1,17.1,17.04-7.19,17.04-17.1-7.17-17.1-17.04-17.1ZM233.46,54.51c0,5.91-3.74,10.04-9.1,10.04s-9.17-4.03-9.17-10.04,3.68-10.04,9.17-10.04,9.1,4.13,9.1,10.04Z"/>
  <path class="cls-1" d="M66.52,41.39v-3.36h-7.92v33.67h7.92v-12.21c0-10.6,3.68-14.36,6.83-14.36h5.51v-7.1h-4.75c-3.43,0-5.93,1.1-7.59,3.36ZM66.52,41.47h0s-.45,0-.45,0h.45Z"/>
  <path class="cls-1" d="M169.89,37.94l.02-.07c.78-2.29,1.14-4.97,1.02-7.29l-.02-.42h-8.36l-.02.42c-.1,1.94-.5,4.05-1.82,5.55-1.68,1.9-4.43,1.97-6.77,1.85-.05,1.34,0,2.69,0,4.03v2.91h6.57v15.36c0,7.04,4.42,11.41,11.54,11.41h5.93v-7.14h-5.42c-2.67,0-4.08-1.54-4.08-4.46v-15.17h9.5v-6.9l-8.12-.03.04-.06Z"/>
  <path class="cls-1" d="M51.83,45.13c-4.8,0-16.98-.02-21.61-.03-7.9-.13-18.29-.05-22.3,7.64-5.46,11.19,7.99,16.07,15.42,8.61,5.32-4.99,8.01-12.92,9.33-20.13.9-6.09,1.83-12.15,3.63-18.08,2.31-7.31,5.34-15.44,12.08-20.25,7.9-5.85,21.3-2.64,22.14,8.28.42,6.29-3.3,11.9-8.36,15.06-4.72,2.9-10,4.03-15.36,4.38-10.42.58-20.98-2.33-29.44-8.53l4.22-5.71c6.99,5.19,16.05,7.73,24.82,7.26,6.2-.46,12.7-1.91,16.11-7.15,1.63-2.45,2.07-5.76.26-7.91-.47-.56-1.1-.96-1.76-1.27-13.02-6.15-19.36,24.49-20.26,33.38-1.57,14.65-11.57,33.95-29.01,30.65-10.1-2.17-14.43-12.43-10.02-21.56,2.34-5.34,7.86-8.92,13.25-10.35,7.11-2.07,15.16-1.26,22.46-1.41,0,0,14.41.01,14.41.01,0,0,0,7.1,0,7.1h0Z"/>
</svg>