<?xml version="1.0" encoding="utf-8"?>
<!-- Generator: Adobe Illustrator 26.0.2, SVG Export Plug-In . SVG Version: 6.00 Build 0)  -->
<svg version="1.1" id="Layer_1" xmlns="http://www.w3.org/2000/svg" xmlns:xlink="http://www.w3.org/1999/xlink" x="0px"
  y="0px" viewBox="0 0 864.28 120.33" style="enable-background:new 0 0 864.28 120.33;" xml:space="preserve">
  <style type="text/css">
    .st0 {
      fill: #005051;
    }
  </style>
  <g>
    <g>
      <path class="st0"
        d="M190.28,39.41c-0.36-0.76-0.12-1.32,0.6-1.32h5.18c0.43-0.06,0.87,0.04,1.24,0.28
			c0.37,0.24,0.64,0.61,0.78,1.04l13.49,29.02h0.12l13.5-29.02c0.13-0.44,0.41-0.81,0.78-1.05c0.37-0.24,0.81-0.34,1.24-0.27h5.18
			c0.73,0,1.01,0.56,0.6,1.32l-20.3,42.81c-0.24,0.56-0.48,0.75-0.91,0.75h-0.36c-0.42,0-0.67-0.19-0.9-0.75L190.28,39.41z" />
      <path class="st0" d="M275.74,37.24c5.72,0.13,11.16,2.6,15.17,6.89c4,4.29,6.24,10.05,6.24,16.06c0,6-2.24,11.77-6.24,16.06
			s-9.45,6.76-15.17,6.89c-12.17,0-21.58-10.04-21.58-22.94C254.16,47.29,263.57,37.24,275.74,37.24z M275.74,76.49
			c8.8,0,14.7-7.64,14.7-16.3s-5.91-16.31-14.7-16.31s-14.64,7.58-14.64,16.31s5.91,16.34,14.64,16.34V76.49z" />
      <path class="st0" d="M349.45,75.9c1.01,0,1.21,0.25,1.21,1.26v3.86c0,1.06-0.24,1.33-1.21,1.33h-24.71c-0.91,0-1.2-0.32-1.2-1.33
			v-41.6c0-1,0.29-1.32,1.2-1.32h4.46c0.9,0,1.2,0.32,1.2,1.32v36.49h19.05V75.9z" />
      <path class="st0" d="M398.75,38.09c1.01,0,1.26,0.32,1.26,1.32v4.05c0,1.06-0.3,1.33-1.26,1.33h-12.17v36.22
			c0,1.06-0.24,1.33-1.21,1.33h-4.46c-0.91,0-1.21-0.32-1.21-1.33V44.8h-12.23c-0.9,0-1.2-0.32-1.2-1.33v-4.05
			c0-1,0.3-1.32,1.2-1.32L398.75,38.09L398.75,38.09z" />
      <path class="st0" d="M431.29,81.03c0,1.06-0.3,1.33-1.2,1.33h-4.44c-0.91,0-1.2-0.32-1.2-1.33v-41.6c0-1,0.29-1.32,1.2-1.32h15.73
			c7.05,0,14.82,3.66,14.82,13.9c0,8.1-4.88,12.07-10.43,13.34l10.08,15.36c0.67,1.06,0.24,1.65-0.9,1.65h-4.82
			c-0.43-0.01-0.86-0.13-1.23-0.37c-0.37-0.23-0.67-0.57-0.88-0.97l-10.01-15.17h-6.75L431.29,81.03z M440.69,59.21
			c6.51,0,8.56-3.17,8.56-7.34c0-4.17-2.02-7.2-8.56-7.2h-9.4v14.54L440.69,59.21L440.69,59.21z" />
      <path class="st0"
        d="M501.73,37.24c5.72,0.13,11.16,2.6,15.17,6.89c4,4.29,6.24,10.05,6.24,16.06c0,6-2.24,11.77-6.24,16.06
			s-9.45,6.76-15.17,6.89c-12.17,0-21.58-10.04-21.58-22.94C480.16,47.29,489.57,37.24,501.73,37.24z M501.73,76.49
			c8.8,0,14.7-7.64,14.7-16.3s-5.9-16.31-14.7-16.31c-8.8,0-14.62,7.61-14.62,16.35c0,8.73,5.89,16.3,14.62,16.3V76.49z" />
      <path class="st0" d="M556.52,53.53h-0.12v27.49c0,1.06-0.3,1.33-1.2,1.33h-4.4c-1.01,0-1.26-0.32-1.26-1.33V38.09
			c0-0.44,0.17-0.63,0.65-0.63h0.3c0.2,0,0.39,0.05,0.57,0.15c0.17,0.1,0.32,0.24,0.43,0.42l26.87,28.9h0.12V39.44
			c0-1,0.24-1.32,1.2-1.32h4.4c1.01,0,1.27,0.32,1.27,1.32v42.87c0,0.5-0.18,0.69-0.67,0.69h-0.3c-0.2,0-0.4-0.05-0.57-0.15
			c-0.17-0.1-0.33-0.24-0.43-0.41L556.52,53.53z" />
      <path class="st0" d="M660.59,38.09c12.17,0,21.28,9.23,21.28,22.13s-9.07,22.13-21.28,22.13h-15.11c-0.91,0-1.2-0.32-1.2-1.33
			v-41.6c0-1,0.29-1.32,1.2-1.32h15.11V38.09z M651.2,44.67v31.11h9.4c8.74,0,14.34-6.89,14.34-15.55s-5.6-15.58-14.34-15.58
			L651.2,44.67z" />
      <path class="st0" d="M745.74,81.03c0.36,0.76,0.12,1.33-0.6,1.33h-5.18c-0.43,0.05-0.86-0.05-1.23-0.29s-0.64-0.61-0.78-1.04
			l-3.86-8.34h-19.41l-3.85,8.34c-0.13,0.44-0.4,0.82-0.77,1.06s-0.81,0.34-1.25,0.27h-5.18c-0.73,0-1.01-0.57-0.6-1.33l20.25-42.8
			c0.24-0.57,0.48-0.76,0.9-0.76h0.36c0.43,0,0.67,0.19,0.91,0.76L745.74,81.03z M724.42,51.17l-6.98,14.87h13.98l-6.93-14.87
			H724.42z" />
      <path class="st0" d="M794.26,38.09c1.01,0,1.27,0.32,1.27,1.32v4.05c0,1.06-0.3,1.33-1.27,1.33h-12.17v36.22
			c0,1.06-0.24,1.33-1.2,1.33h-4.47c-0.9,0-1.2-0.32-1.2-1.33V44.8h-12.23c-0.91,0-1.21-0.32-1.21-1.33v-4.05
			c0-1,0.3-1.32,1.21-1.32L794.26,38.09L794.26,38.09z" />
      <path class="st0" d="M854.23,81.03c0.36,0.76,0.12,1.33-0.6,1.33h-5.18c-0.43,0.05-0.86-0.06-1.23-0.3s-0.64-0.61-0.79-1.04
			l-3.85-8.34h-19.39l-3.86,8.34c-0.12,0.44-0.39,0.82-0.77,1.07c-0.37,0.25-0.82,0.34-1.25,0.26h-5.18c-0.73,0-1.01-0.57-0.6-1.33
			l20.25-42.8c0.24-0.57,0.48-0.76,0.9-0.76h0.36c0.43,0,0.67,0.19,0.9,0.76L854.23,81.03z M832.9,51.17l-7,14.87h13.98l-6.92-14.87
			H832.9z" />
    </g>
    <g>
      <path class="st0" d="M70.53,4.46L70.53,4.46H39.97H9.41l15.28,27.77l15.28,27.76l15.28,27.77l15.28,27.77l15.28-27.77l15.28-27.77
			L85.8,32.22L70.53,4.46z M81.79,85.32l-11.25,20.45L59.29,85.32L45.34,59.99l13.94-25.33l11.25-20.45l11.25,20.45l13.95,25.33
			L81.79,85.32z" />
      <polygon class="st0" points="98.29,4.46 101,9.39 123.5,9.39 112.23,29.88 114.94,34.84 131.65,4.46 		" />
    </g>
  </g>
</svg>
